<svg width="28" height="28" viewBox="0 0 28 28" fill="none" xmlns="http://www.w3.org/2000/svg">
<path d="M12.8393 18.6607L9.59518 15.4166L20.4167 15.4166C20.8769 15.4166 21.25 15.0436 21.25 14.5833C21.25 14.1231 20.8769 13.75 20.4167 13.75L9.59518 13.75L12.8393 10.5059C13.1647 10.1805 13.1647 9.65283 12.8393 9.32739L12.8393 9.32739C12.5138 9.00195 11.9862 9.00195 11.6607 9.32739L6.99408 13.9941C6.66864 14.3195 6.66864 14.8471 6.99408 15.1726L11.6607 19.8392C11.9862 20.1647 12.5138 20.1647 12.8393 19.8392C13.1647 19.5138 13.1647 18.9862 12.8393 18.6607Z" fill="white" stroke="white" stroke-width="0.5"/>
</svg>
