<svg width="20" height="21" viewBox="0 0 20 21" fill="none" xmlns="http://www.w3.org/2000/svg">
<path d="M19.8729 10.2033C19.6942 9.95884 15.4371 4.21863 9.9999 4.21863C4.56274 4.21863 0.305391 9.95884 0.126914 10.203C-0.0423048 10.4349 -0.0423048 10.7494 0.126914 10.9813C0.305391 11.2257 4.56274 16.9659 9.9999 16.9659C15.4371 16.9659 19.6942 11.2256 19.8729 10.9815C20.0423 10.7496 20.0423 10.4349 19.8729 10.2033ZM9.9999 15.6472C5.99486 15.6472 2.52606 11.8373 1.49922 10.5918C2.52473 9.3452 5.98626 5.5373 9.9999 5.5373C14.0048 5.5373 17.4733 9.34653 18.5006 10.5927C17.4751 11.8393 14.0135 15.6472 9.9999 15.6472Z" fill="#D9C9C5"/>
<path d="M9.99988 6.63623C7.81855 6.63623 6.04382 8.41096 6.04382 10.5923C6.04382 12.7736 7.81855 14.5484 9.99988 14.5484C12.1812 14.5484 13.9559 12.7736 13.9559 10.5923C13.9559 8.41096 12.1812 6.63623 9.99988 6.63623ZM9.99988 13.2296C8.54558 13.2296 7.36253 12.0466 7.36253 10.5923C7.36253 9.13803 8.54562 7.95494 9.99988 7.95494C11.4541 7.95494 12.6372 9.13803 12.6372 10.5923C12.6372 12.0466 11.4542 13.2296 9.99988 13.2296Z" fill="#D9C9C5"/>
</svg>
