<svg width="42" height="42" viewBox="0 0 42 42" fill="none" xmlns="http://www.w3.org/2000/svg">
<g clip-path="url(#clip0_134_1479)">
<path d="M21.1959 0C9.72241 0 0.421387 9.30102 0.421387 20.7745C0.421387 32.248 9.72241 41.549 21.1959 41.549C32.6693 41.549 41.9704 32.248 41.9704 20.7745C41.9704 9.30102 32.6693 0 21.1959 0ZM29.1214 10.5796L26.2481 10.5809C23.9949 10.5809 23.5592 11.6516 23.5592 13.2226V16.6867H28.9323L28.9297 22.1126H23.5596V36.0365H17.9553V22.1126H13.2703V16.6867H17.9553V12.6853C17.9553 8.04159 20.7925 5.51252 24.9346 5.51252L29.1218 5.51889V10.5796H29.1214Z" fill="#2F80ED"/>
</g>
<defs>
<clipPath id="clip0_134_1479">
<rect width="41.549" height="41.549" fill="white" transform="translate(0.421387)"/>
</clipPath>
</defs>
</svg>
