<svg width="43" height="42" viewBox="0 0 43 42" fill="none" xmlns="http://www.w3.org/2000/svg">
<g clip-path="url(#clip0_134_1477)">
<path d="M21.3258 41.549C32.7933 41.549 42.1002 32.242 42.1002 20.7745C42.1002 9.30697 32.7933 0 21.3258 0C9.85824 0 0.55127 9.30697 0.55127 20.7745C0.55127 32.242 9.85824 41.549 21.3258 41.549ZM28.7405 19.2908H31.7147V16.3184H34.6889V19.2926H37.6372V22.2668H34.6889V25.241H31.7147V22.2668H28.7405V19.2908ZM15.4033 10.3855C18.0243 10.3855 20.4376 11.3082 22.3576 13.0914L19.5426 15.8232C18.4364 14.7412 16.9216 14.2236 15.4033 14.2236C11.8093 14.2236 8.93551 17.1978 8.93551 20.7658C8.93551 24.3338 11.8007 27.3081 15.4033 27.3081C18.1334 27.3081 20.8393 25.7084 21.2756 22.8433H15.4033V19.2753H25.1967C25.3058 19.8448 25.356 20.4144 25.356 21.0082C25.356 26.9393 21.376 31.16 15.4033 31.16V31.1617C9.64011 31.1617 5.01432 26.5117 5.01432 20.7728C5.01432 15.0338 9.64011 10.3855 15.4033 10.3855Z" fill="#EB5757"/>
</g>
<defs>
<clipPath id="clip0_134_1477">
<rect width="41.549" height="41.549" fill="white" transform="translate(0.55127)"/>
</clipPath>
</defs>
</svg>
