<svg width="59" height="57" viewBox="0 0 59 57" fill="none" xmlns="http://www.w3.org/2000/svg">
<g filter="url(#filter0_d_187_1407)">
<rect x="15" y="8" width="28.4413" height="26.9115" rx="13.4557" fill="#E30613" shape-rendering="crispEdges"/>
<path d="M32.8975 14.2103C32.1488 14.2105 31.4136 14.4106 30.7674 14.7902C30.1213 15.1698 29.5874 15.7151 29.2207 16.3702C28.8539 15.715 28.3198 15.1695 27.6735 14.7899C27.0271 14.4103 26.2917 14.2103 25.5429 14.2103C24.3959 14.2725 23.317 14.7761 22.5306 15.6163C21.7441 16.4565 21.3107 17.5687 21.3205 18.7214C21.3205 24.5999 29.2207 28.7011 29.2207 28.7011C29.2207 28.7011 37.1209 24.602 37.1209 18.7214C37.1306 17.5685 36.6971 16.4562 35.9104 15.6159C35.1237 14.7757 34.0446 14.2722 32.8975 14.2103Z" fill="white"/>
</g>
<defs>
<filter id="filter0_d_187_1407" x="0" y="0" width="58.4413" height="56.9114" filterUnits="userSpaceOnUse" color-interpolation-filters="sRGB">
<feFlood flood-opacity="0" result="BackgroundImageFix"/>
<feColorMatrix in="SourceAlpha" type="matrix" values="0 0 0 0 0 0 0 0 0 0 0 0 0 0 0 0 0 0 127 0" result="hardAlpha"/>
<feOffset dy="7"/>
<feGaussianBlur stdDeviation="7.5"/>
<feComposite in2="hardAlpha" operator="out"/>
<feColorMatrix type="matrix" values="0 0 0 0 0.996078 0 0 0 0 0.447059 0 0 0 0 0.298039 0 0 0 0.4 0"/>
<feBlend mode="normal" in2="BackgroundImageFix" result="effect1_dropShadow_187_1407"/>
<feBlend mode="normal" in="SourceGraphic" in2="effect1_dropShadow_187_1407" result="shape"/>
</filter>
</defs>
</svg>
