<svg width="390" height="584" viewBox="0 0 390 584" fill="none" xmlns="http://www.w3.org/2000/svg">
<path d="M-266.91 46.1149C-305.069 167.635 -253.169 301.728 -88.9002 431.842C75.3691 561.956 548.151 553.355 332.125 234.221C116.099 -84.9132 293.576 -154.832 113.119 -211.498C-67.3384 -268.164 -214.844 -119.695 -266.91 46.1149Z" fill="#F79E38" fill-opacity="0.25"/>
<path d="M333.692 165.038C327.965 289.233 240.869 395.033 58.4795 459.834C-123.91 524.634 -527.428 359.606 -240.656 138.555C46.1152 -82.4967 -84.2238 -205.644 88.7965 -197.666C261.817 -189.688 341.506 -4.42097 333.692 165.038Z" fill="#F79E38" fill-opacity="0.45"/>
<g clip-path="url(#clip0_262_619)">
<path d="M12.2924 318.805C14.3512 318.36 16.5027 318.75 18.2737 319.889C20.0447 321.029 21.29 322.824 21.7357 324.881C22.1815 326.938 21.7911 329.087 20.6504 330.856C19.5098 332.625 17.7124 333.869 15.6536 334.315C11.3663 335.242 0 329.582 0 329.582C0 329.582 8.00512 319.732 12.2924 318.805Z" fill="#F79E38"/>
<path d="M14.1901 481.709C15.538 480.092 17.4737 479.076 19.5715 478.884C21.6692 478.693 23.7572 479.342 25.3761 480.688C26.9949 482.035 28.012 483.969 28.2036 486.064C28.3952 488.16 27.7457 490.246 26.3978 491.863C23.591 495.231 11.1461 497.762 11.1461 497.762C11.1461 497.762 11.3833 485.077 14.1901 481.709Z" fill="#F79E38"/>
<path d="M358.654 223.375C345.859 201.777 320.545 200.771 320.545 200.771C320.545 200.771 295.878 197.619 280.054 230.513C265.305 261.173 244.949 290.775 276.777 297.953L282.526 280.077L286.086 299.283C290.618 299.609 295.164 299.687 299.704 299.516C333.789 298.417 366.25 299.838 365.204 287.619C363.815 271.376 370.966 244.156 358.654 223.375Z" fill="#2F2E41"/>
<path d="M306.136 268.577C310.545 278.32 313.325 289.934 314.985 302.833L350.382 300.623C342.244 289.103 339.542 275.881 342.639 260.842L306.136 268.577Z" fill="#FFB8B8"/>
<path opacity="0.2" d="M306.136 268.577C310.545 278.32 313.325 289.934 314.985 302.833L350.382 300.623C342.244 289.103 339.542 275.881 342.639 260.842L306.136 268.577Z" fill="black"/>
<path d="M141.905 454.075C141.905 454.075 123.585 463.878 132.882 472.248C142.178 480.618 154.458 461.169 154.458 461.169L141.905 454.075Z" fill="#FFB8B8"/>
<path d="M365.868 425.491L365.582 438.884L364.971 467.821L364.458 492.371L327.364 507L247.127 479.057L252.406 449.775L256.669 426.131L258.572 415.545L354.807 402.285L365.868 425.491Z" fill="#2F2E41"/>
<path d="M365.868 425.491L365.58 438.884C331.533 438.011 278.759 429.8 256.669 426.132L258.571 415.545L354.806 402.285L365.868 425.491Z" fill="#3F3D56"/>
<path d="M323.281 277.97C338.554 277.97 350.935 265.602 350.935 250.345C350.935 235.087 338.554 222.719 323.281 222.719C308.008 222.719 295.627 235.087 295.627 250.345C295.627 265.602 308.008 277.97 323.281 277.97Z" fill="#FFB8B8"/>
<path d="M376.376 440.408C376.376 440.408 379.695 470.244 359.784 468.034L356.466 438.198L338.767 420.518L288.991 419.413L252.488 453.669C252.488 453.669 251.382 418.308 255.806 414.993C260.231 411.678 270.186 403.943 270.186 403.943V398.418L240.32 337.641C240.32 337.641 258.018 301.176 272.398 300.071L291.203 298.966C291.203 298.966 297.84 295.651 297.84 294.545C297.84 293.44 296.734 284.6 302.264 286.81C302.264 286.81 302.762 275.473 308.592 278.932C308.592 278.932 326.943 293.297 345.57 279.561C345.57 279.561 354.253 277.97 353.147 282.39C352.041 286.81 353.147 290.125 355.36 290.125C357.572 290.125 367.527 293.44 367.527 295.651C367.527 296.126 368.246 300.7 369.374 307.585V307.596C373.478 332.691 383.013 388.472 383.013 388.472C383.013 388.472 392.969 402.838 376.376 440.408Z" fill="#F79E38"/>
<path d="M248.063 332.116L240.32 337.641L169.527 428.253L131.917 458.089C131.917 458.089 152.934 454.774 148.51 472.454L277.929 398.418L248.063 332.116Z" fill="#F79E38"/>
<path d="M369.374 307.585V307.596C367.903 316.237 319.963 314.436 313.326 314.436C306.689 314.436 301.158 313.331 294.521 308.911C287.884 304.491 291.203 298.966 291.203 298.966C291.203 298.966 296.854 294.666 296.854 293.561C296.854 292.456 295.748 283.616 301.279 285.826C301.279 285.826 301.776 274.488 307.606 277.947C307.606 277.947 326.943 293.297 345.57 279.561C345.57 279.561 354.253 277.97 353.147 282.39C352.041 286.81 353.147 290.125 355.36 290.125C357.572 290.125 367.527 293.44 367.527 295.651C367.527 296.126 368.246 300.7 369.374 307.585Z" fill="#3F3D56"/>
<path d="M363.656 266.367C363.656 266.367 354.806 247.582 345.957 256.422C337.108 265.262 355.912 278.523 355.912 278.523L363.656 266.367Z" fill="#FFB8B8"/>
<path d="M363.656 261.947C363.656 261.947 349.991 279.198 345.762 280.518C345.762 280.518 358.125 329.354 373.611 342.614L382.46 387.92C382.46 387.92 420.069 372.45 411.22 347.034C411.132 346.78 411.043 346.527 410.956 346.276C403.567 325.11 393.37 305.03 380.637 286.573L363.656 261.947Z" fill="#F79E38"/>
<path opacity="0.2" d="M356.354 313.113L383.566 387.92L373.611 342.614L356.354 313.113Z" fill="black"/>
<path d="M352.998 221.293L327.988 208.206L293.452 213.56L286.306 245.087L304.094 244.404L309.063 232.821V244.213L317.27 243.897L322.034 225.457L325.011 245.087L354.188 244.492L352.998 221.293Z" fill="#2F2E41"/>
<path d="M138.449 467.603C121.257 458.029 110.555 444.957 106.638 428.752C103.731 416.721 104.566 403.182 109.122 388.511C112.499 377.695 117.562 367.478 124.125 358.237C158.941 309.006 162.083 276.927 158.589 258.684C154.757 238.682 142.308 230.375 142.183 230.294L142.72 229.468C142.849 229.552 155.626 238.052 159.549 258.46C161.811 270.225 160.747 283.64 156.386 298.333C150.959 316.619 140.375 336.965 124.93 358.806C118.427 367.962 113.41 378.085 110.063 388.803C102.592 412.864 101.535 445.918 138.929 466.743L138.449 467.603Z" fill="#2F2E41"/>
<path d="M107.05 376.442C93.4968 368.895 93.8741 356.933 96.5773 348.228C97.7758 344.389 99.5729 340.762 101.902 337.482C114.1 320.235 115.202 309.03 113.979 302.668C112.65 295.76 108.389 292.924 108.346 292.896L108.883 292.07C109.073 292.193 113.54 295.167 114.947 302.483C116.779 312.01 112.661 323.976 102.708 338.05C100.438 341.246 98.6866 344.779 97.5188 348.52C94.9237 356.877 94.554 368.356 107.53 375.582L107.05 376.442Z" fill="#2F2E41"/>
<path d="M168.028 267.134L167.548 266.274C180.524 259.047 180.154 247.568 177.559 239.211C176.391 235.47 174.64 231.937 172.37 228.741C162.417 214.667 158.3 202.701 160.131 193.174C161.538 185.858 166.005 182.884 166.195 182.761L166.733 183.586C166.69 183.615 162.407 186.488 161.092 193.399C159.882 199.757 160.996 210.951 173.176 228.173C175.505 231.453 177.302 235.08 178.501 238.919C181.204 247.624 181.581 259.586 168.028 267.134Z" fill="#2F2E41"/>
<path d="M196.965 218.14C195.905 219.766 194.534 221.166 192.931 222.263C191.329 223.359 189.525 224.128 187.625 224.528C185.724 224.928 183.764 224.95 181.854 224.592C179.945 224.235 178.126 223.505 176.499 222.445C174.872 221.385 173.471 220.015 172.374 218.414C171.277 216.812 170.507 215.011 170.108 213.112C169.709 211.213 169.687 209.254 170.046 207.347C170.404 205.44 171.136 203.623 172.197 201.998C176.66 195.165 199.124 187.801 199.124 187.801C199.124 187.801 201.428 211.308 196.965 218.14Z" fill="#F79E38"/>
<path d="M191.544 172.349C190.483 173.974 189.112 175.375 187.51 176.471C185.907 177.567 184.104 178.337 182.203 178.737C180.303 179.136 178.342 179.158 176.433 178.801C174.524 178.443 172.704 177.714 171.077 176.654C169.451 175.593 168.049 174.223 166.952 172.622C165.856 171.021 165.086 169.219 164.686 167.32C164.287 165.421 164.266 163.463 164.624 161.556C164.983 159.649 165.714 157.831 166.776 156.206C171.238 149.374 193.703 142.009 193.703 142.009C193.703 142.009 196.006 165.516 191.544 172.349Z" fill="#F79E38"/>
<path d="M167.711 340.112C164.242 340.117 160.874 338.943 158.162 336.783C155.449 334.623 153.554 331.605 152.786 328.225C152.019 324.845 152.425 321.305 153.939 318.187C155.453 315.069 157.984 312.559 161.116 311.068C168.558 307.525 190.881 312.712 191.828 312.934L192.427 313.075L192.159 313.628C191.736 314.502 181.701 335.086 174.258 338.629C172.214 339.605 169.977 340.111 167.711 340.112ZM168.954 310.819C165.927 310.819 163.274 311.132 161.54 311.957C158.117 313.586 155.483 316.506 154.215 320.075C152.948 323.645 153.152 327.571 154.782 330.99C156.413 334.409 159.336 337.041 162.909 338.307C166.482 339.573 170.412 339.369 173.834 337.74C180.309 334.658 189.315 317.12 190.996 313.756C188.306 313.159 177.233 310.819 168.954 310.819Z" fill="#2F2E41"/>
<path d="M137.579 204.587C139.014 205.894 140.177 207.471 141.002 209.227C141.827 210.983 142.297 212.884 142.387 214.822C142.476 216.76 142.183 218.696 141.523 220.521C140.863 222.345 139.851 224.022 138.542 225.455C137.234 226.889 135.656 228.051 133.898 228.875C132.14 229.699 130.237 230.169 128.297 230.258C126.358 230.348 124.419 230.055 122.593 229.396C120.767 228.737 119.088 227.725 117.653 226.418C111.619 220.921 107.949 197.588 107.949 197.588C107.949 197.588 131.544 199.091 137.579 204.587Z" fill="#F79E38"/>
<path d="M103.077 266.628C105.975 269.267 107.704 272.949 107.885 276.862C108.065 280.776 106.683 284.6 104.04 287.495C101.398 290.39 97.7128 292.118 93.7953 292.298C89.8778 292.479 86.049 291.097 83.1512 288.458C77.1168 282.961 73.4467 259.628 73.4467 259.628C73.4467 259.628 97.0423 261.131 103.077 266.628Z" fill="#F79E38"/>
<path d="M141.75 275.329C136.814 275.329 127.377 270.66 126.944 270.444L126.394 270.17L126.782 269.693C127.113 269.286 134.946 259.698 139.352 258.745C141.539 258.272 143.824 258.687 145.705 259.897C147.586 261.107 148.908 263.014 149.382 265.198C149.855 267.383 149.44 269.666 148.229 271.545C147.017 273.424 145.108 274.745 142.922 275.218C142.536 275.296 142.143 275.333 141.75 275.329ZM127.946 269.834C130.27 270.943 139.172 275.022 142.713 274.255C144.643 273.836 146.328 272.669 147.397 271.01C148.466 269.351 148.831 267.336 148.413 265.408C147.995 263.479 146.828 261.796 145.168 260.727C143.508 259.658 141.491 259.292 139.561 259.708C136.018 260.474 129.603 267.865 127.946 269.834Z" fill="#2F2E41"/>
<path d="M88.8174 475.662C89.8558 473.832 91.5789 472.489 93.608 471.928C95.6372 471.367 97.8063 471.633 99.6387 472.669C101.471 473.705 102.817 475.425 103.38 477.452C103.943 479.479 103.678 481.646 102.643 483.477C100.482 487.291 88.6889 491.999 88.6889 491.999C88.6889 491.999 86.657 479.476 88.8174 475.662Z" fill="#F79E38"/>
<path d="M63.0193 391.176C59.6173 391.121 56.2233 390.829 52.8622 390.301L52.255 390.202L52.4836 389.632C52.6788 389.145 57.3105 377.666 61.2347 375.45C62.199 374.905 63.2613 374.556 64.3608 374.421C65.4603 374.287 66.5756 374.37 67.643 374.666C68.7103 374.962 69.7089 375.465 70.5816 376.147C71.4543 376.828 72.1841 377.675 72.7293 378.638C73.2745 379.602 73.6244 380.663 73.7591 381.761C73.8938 382.859 73.8106 383.974 73.5142 385.04C73.2179 386.106 72.7142 387.104 72.032 387.976C71.3497 388.847 70.5023 389.576 69.538 390.121C68.1281 390.917 65.6454 391.176 63.0193 391.176ZM53.6371 389.421C56.1858 389.79 65.8979 391.045 69.0528 389.264C70.7728 388.293 72.036 386.679 72.5646 384.777C73.0933 382.875 72.844 380.841 71.8716 379.123C70.8992 377.405 69.2833 376.143 67.3795 375.615C65.4757 375.087 63.4399 375.336 61.7199 376.307C58.5655 378.089 54.6347 387.049 53.6371 389.421Z" fill="#2F2E41"/>
</g>
<defs>
<clipPath id="clip0_262_619">
<rect width="534" height="403" fill="white" transform="translate(0 104)"/>
</clipPath>
</defs>
</svg>
