<svg width="390" height="844" viewBox="0 0 390 844" fill="none" xmlns="http://www.w3.org/2000/svg">
<path d="M-476.321 167.964C-528.048 332.639 -457.694 514.353 -235.013 690.674C-12.3331 866.994 628.561 855.339 335.72 422.872C42.8792 -9.5953 283.464 -104.344 38.8396 -181.134C-205.785 -257.924 -405.74 -56.7292 -476.321 167.964Z" fill="#F79E38" fill-opacity="0.25"/>
<path d="M337.844 329.121C330.082 497.42 212.016 640.793 -35.2283 728.606C-282.472 816.419 -829.473 592.785 -440.731 293.232C-51.9891 -6.32069 -228.674 -173.201 5.86885 -162.39C240.412 -151.578 348.437 99.4819 337.844 329.121Z" fill="#F79E38" fill-opacity="0.45"/>
<g clip-path="url(#clip0_262_622)">
<path d="M361.116 476.135C341.276 442.639 302.025 441.078 302.025 441.078C302.025 441.078 263.777 436.191 239.241 487.205C216.371 534.754 184.809 580.664 234.16 591.795L243.074 564.073L248.594 593.859C255.621 594.364 262.67 594.484 269.71 594.22C322.56 592.515 372.893 594.718 371.272 575.769C369.118 550.578 380.206 508.364 361.116 476.135Z" fill="#2F2E41"/>
<path d="M279.683 546.238C286.519 561.348 290.83 579.358 293.404 599.364L348.289 595.937C335.67 578.071 331.481 557.565 336.283 534.242L279.683 546.238Z" fill="#FFB8B8"/>
<path opacity="0.2" d="M279.683 546.238C286.519 561.348 290.83 579.358 293.404 599.364L348.289 595.937C335.67 578.071 331.481 557.565 336.283 534.242L279.683 546.238Z" fill="black"/>
<path d="M25.0328 833.921C25.0328 833.921 -3.37352 849.124 11.0412 862.104C25.4558 875.084 44.497 844.923 44.497 844.923L25.0328 833.921Z" fill="#FFB8B8"/>
<path d="M372.3 789.59L371.857 810.361L370.91 855.239L370.115 893.313L312.598 916L188.186 872.665L196.371 827.252L202.982 790.583L205.932 774.165L355.151 753.601L372.3 789.59Z" fill="#2F2E41"/>
<path d="M372.301 789.59L371.855 810.36C319.062 809.006 237.233 796.273 202.981 790.584L205.931 774.166L355.149 753.601L372.301 789.59Z" fill="#3F3D56"/>
<path d="M306.267 560.805C329.949 560.805 349.146 541.623 349.146 517.961C349.146 494.299 329.949 475.118 306.267 475.118C282.586 475.118 263.389 494.299 263.389 517.961C263.389 541.623 282.586 560.805 306.267 560.805Z" fill="#FFB8B8"/>
<path d="M388.595 812.725C388.595 812.725 393.74 858.996 362.867 855.569L357.722 809.298L330.28 781.878L253.098 780.164L196.498 833.29C196.498 833.29 194.783 778.45 201.643 773.309C208.504 768.168 223.94 756.172 223.94 756.172V747.603L177.631 653.347C177.631 653.347 205.074 596.794 227.37 595.08L256.528 593.366C256.528 593.366 266.819 588.225 266.819 586.511C266.819 584.797 265.104 571.087 273.68 574.515C273.68 574.515 274.451 556.932 283.49 562.296C283.49 562.296 311.945 584.574 340.828 563.273C340.828 563.273 354.292 560.805 352.577 567.66C350.861 574.515 352.577 579.656 356.007 579.656C359.437 579.656 374.874 584.797 374.874 588.225C374.874 588.962 375.988 596.057 377.738 606.733V606.75C384.101 645.669 398.886 732.179 398.886 732.179C398.886 732.179 414.322 754.458 388.595 812.725Z" fill="#F79E38"/>
<path d="M189.637 644.778L177.631 653.347L67.8613 793.874L9.54614 840.145C9.54614 840.145 42.134 835.004 35.2734 862.424L235.946 747.603L189.637 644.778Z" fill="#F79E38"/>
<path d="M377.738 606.733V606.75C375.457 620.152 301.122 617.358 290.831 617.358C280.54 617.358 271.964 615.645 261.674 608.79C251.383 601.935 256.528 593.366 256.528 593.366C256.528 593.366 265.291 586.698 265.291 584.984C265.291 583.27 263.575 569.56 272.151 572.988C272.151 572.988 272.923 555.405 281.962 560.769C281.962 560.769 311.945 584.574 340.828 563.273C340.828 563.273 354.292 560.805 352.577 567.66C350.862 574.515 352.577 579.656 356.007 579.656C359.437 579.656 374.874 584.797 374.874 588.225C374.874 588.962 375.989 596.057 377.738 606.733Z" fill="#3F3D56"/>
<path d="M368.87 542.811C368.87 542.811 355.149 513.677 341.428 527.387C327.707 541.097 356.864 561.662 356.864 561.662L368.87 542.811Z" fill="#FFB8B8"/>
<path d="M368.87 535.956C368.87 535.956 347.683 562.71 341.125 564.756C341.125 564.756 360.295 640.494 384.307 661.059L398.028 731.322C398.028 731.322 456.343 707.33 442.622 667.914C442.485 667.52 442.348 667.128 442.212 666.739C430.756 633.913 414.944 602.772 395.201 574.146L368.87 535.956Z" fill="#F79E38"/>
<path opacity="0.2" d="M357.548 615.307L399.743 731.322L384.307 661.059L357.548 615.307Z" fill="black"/>
<path d="M352.344 472.906L313.566 452.61L260.015 460.913L248.936 509.808L276.516 508.748L284.221 490.784V508.451L296.946 507.962L304.333 479.364L308.95 509.808L354.191 508.885L352.344 472.906Z" fill="#2F2E41"/>
<path d="M19.6734 854.9C-6.98346 840.052 -23.5782 819.78 -29.6504 794.648C-34.159 775.989 -32.8634 754.992 -25.8 732.24C-20.5639 715.465 -12.7131 699.62 -2.53714 685.289C51.4479 608.937 56.3203 559.186 50.9016 530.895C44.9604 499.875 25.6575 486.992 25.4631 486.865L26.2964 485.585C26.4957 485.714 46.3071 498.897 52.3912 530.547C55.8986 548.793 54.2485 569.599 47.4867 592.385C39.071 620.744 22.6606 652.298 -1.28852 686.17C-11.3718 700.37 -19.1512 716.07 -24.3402 732.691C-35.9248 770.007 -37.5638 821.269 20.4175 853.566L19.6734 854.9Z" fill="#2F2E41"/>
<path d="M65.5378 543.999L64.7937 542.665C84.9138 531.458 84.3406 513.655 80.3167 500.694C78.5059 494.893 75.7905 489.413 72.2709 484.458C56.8381 462.631 50.4532 444.072 53.2934 429.297C55.4746 417.951 62.4017 413.339 62.6954 413.149L63.5294 414.428C63.4626 414.472 56.8214 418.929 54.7827 429.645C52.9072 439.506 54.635 456.868 73.5195 483.576C77.1314 488.663 79.918 494.287 81.7766 500.242C85.968 513.742 86.5531 532.293 65.5378 543.999Z" fill="#2F2E41"/>
<path d="M110.407 468.017C108.762 470.537 106.637 472.71 104.152 474.41C101.667 476.109 98.871 477.303 95.924 477.923C92.9771 478.543 89.9367 478.577 86.9767 478.023C84.0166 477.469 81.1949 476.337 78.6726 474.693C76.1503 473.049 73.977 470.924 72.2766 468.44C70.5763 465.957 69.3824 463.163 68.763 460.218C68.1436 457.273 68.1109 454.235 68.6668 451.278C69.2227 448.32 70.3562 445.501 72.0027 442.982C78.9215 432.385 113.755 420.964 113.755 420.964C113.755 420.964 117.326 457.42 110.407 468.017Z" fill="#F79E38"/>
<path d="M102 397C100.356 399.521 98.2302 401.693 95.7452 403.393C93.2601 405.093 90.4643 406.287 87.5173 406.907C84.5703 407.527 81.53 407.561 78.5699 407.006C75.6099 406.452 72.7881 405.32 70.2659 403.676C67.7436 402.032 65.5702 399.907 63.8699 397.424C62.1696 394.94 60.9756 392.146 60.3562 389.201C59.7369 386.256 59.7042 383.219 60.26 380.261C60.8159 377.304 61.9495 374.485 63.596 371.965C70.5148 361.369 105.348 349.947 105.348 349.947C105.348 349.947 108.919 386.404 102 397Z" fill="#F79E38"/>
<path d="M65.0464 657.178C59.6675 657.187 54.4457 655.366 50.2398 652.016C46.0339 648.665 43.0943 643.985 41.9043 638.743C40.7143 633.502 41.3449 628.012 43.6922 623.176C46.0396 618.341 49.964 614.447 54.8201 612.136C66.3603 606.641 100.973 614.685 102.442 615.029L103.37 615.248L102.955 616.105C102.298 617.462 86.7393 649.384 75.198 654.878C72.0282 656.392 68.5596 657.178 65.0464 657.178ZM66.9742 611.75C62.2798 611.75 58.166 612.235 55.4776 613.515C50.1709 616.04 46.0856 620.569 44.1207 626.104C42.1557 631.64 42.472 637.729 44.9999 643.031C47.5278 648.333 52.0602 652.415 57.6002 654.379C63.1402 656.342 69.2338 656.026 74.5406 653.5C84.5806 648.721 98.5446 621.522 101.152 616.304C96.9798 615.378 79.8108 611.75 66.9742 611.75Z" fill="#2F2E41"/>
<path d="M18.3243 446.998C20.5491 449.025 22.3526 451.47 23.6318 454.193C24.911 456.917 25.6407 459.865 25.7795 462.87C25.9182 465.875 25.4632 468.879 24.4403 471.708C23.4175 474.537 21.847 477.138 19.8183 479.361C17.7897 481.584 15.3427 483.386 12.617 484.664C9.8914 485.942 6.94049 486.671 3.93282 486.81C0.925152 486.949 -2.08041 486.494 -4.91222 485.472C-7.74404 484.45 -10.3467 482.881 -12.5715 480.854C-21.9283 472.329 -27.619 436.142 -27.619 436.142C-27.619 436.142 8.96755 438.473 18.3243 446.998Z" fill="#F79E38"/>
<path d="M24.7916 556.708C17.1391 556.708 2.50608 549.467 1.83476 549.133L0.981323 548.708L1.5825 547.968C2.09634 547.336 14.2426 532.468 21.0742 530.989C24.4646 530.256 28.0078 530.899 30.9242 532.775C33.8406 534.652 35.8914 537.61 36.6253 540.998C37.3593 544.385 36.7164 547.926 34.8379 550.84C32.9595 553.754 29.9994 555.803 26.609 556.536C26.0109 556.657 25.4018 556.715 24.7916 556.708ZM3.38751 548.187C6.99157 549.906 20.7946 556.232 26.2858 555.043C29.2783 554.394 31.8903 552.584 33.5476 550.011C35.2049 547.438 35.7718 544.313 35.1239 541.322C34.4759 538.332 32.666 535.721 30.092 534.063C27.518 532.405 24.3907 531.837 21.3973 532.482C15.9043 533.671 5.95714 545.133 3.38751 548.187Z" fill="#2F2E41"/>
</g>
<defs>
<clipPath id="clip0_262_622">
<rect width="828" height="625" fill="white" transform="translate(-195 291)"/>
</clipPath>
</defs>
</svg>
