<svg width="390" height="584" viewBox="0 0 390 584" fill="none" xmlns="http://www.w3.org/2000/svg">
<path d="M-266.91 46.1149C-305.069 167.635 -253.169 301.728 -88.9002 431.842C75.3691 561.956 548.151 553.355 332.125 234.221C116.099 -84.9132 293.576 -154.832 113.119 -211.498C-67.3384 -268.164 -214.844 -119.695 -266.91 46.1149Z" fill="#F79E38" fill-opacity="0.25"/>
<path d="M333.692 165.038C327.965 289.233 240.869 395.033 58.4795 459.834C-123.91 524.634 -527.428 359.606 -240.656 138.555C46.1152 -82.4967 -84.2238 -205.644 88.7965 -197.666C261.817 -189.688 341.506 -4.42097 333.692 165.038Z" fill="#F79E38" fill-opacity="0.45"/>
<g clip-path="url(#clip0_262_621)">
<path d="M12.2924 137.805C14.3512 137.36 16.5027 137.75 18.2737 138.889C20.0447 140.029 21.29 141.824 21.7357 143.881C22.1815 145.938 21.7911 148.087 20.6504 149.856C19.5098 151.625 17.7124 152.869 15.6536 153.315C11.3663 154.242 0 148.582 0 148.582C0 148.582 8.00512 138.732 12.2924 137.805Z" fill="#F79E38"/>
<path d="M14.1901 300.709C15.538 299.092 17.4737 298.076 19.5715 297.884C21.6692 297.693 23.7572 298.342 25.3761 299.688C26.9949 301.035 28.012 302.969 28.2036 305.064C28.3952 307.16 27.7457 309.246 26.3978 310.863C23.591 314.231 11.1461 316.762 11.1461 316.762C11.1461 316.762 11.3833 304.077 14.1901 300.709Z" fill="#F79E38"/>
<path d="M358.654 42.375C345.859 20.7771 320.545 19.7706 320.545 19.7706C320.545 19.7706 295.878 16.6193 280.054 49.5131C265.305 80.1729 244.949 109.775 276.777 116.953L282.526 99.0774L286.086 118.283C290.618 118.609 295.164 118.687 299.704 118.516C333.789 117.417 366.25 118.838 365.204 106.619C363.815 90.376 370.966 63.1564 358.654 42.375Z" fill="#2F2E41"/>
<path d="M306.136 87.5775C310.545 97.3202 313.325 108.934 314.985 121.833L350.382 119.623C342.244 108.103 339.542 94.881 342.639 79.8423L306.136 87.5775Z" fill="#FFB8B8"/>
<path opacity="0.2" d="M306.136 87.5775C310.545 97.3202 313.325 108.934 314.985 121.833L350.382 119.623C342.244 108.103 339.542 94.881 342.639 79.8423L306.136 87.5775Z" fill="black"/>
<path d="M141.905 273.075C141.905 273.075 123.585 282.878 132.882 291.248C142.178 299.618 154.458 280.169 154.458 280.169L141.905 273.075Z" fill="#FFB8B8"/>
<path d="M365.868 244.491L365.582 257.884L364.971 286.821L364.458 311.371L327.364 326L247.127 298.057L252.406 268.775L256.669 245.131L258.572 234.545L354.807 221.285L365.868 244.491Z" fill="#2F2E41"/>
<path d="M365.868 244.491L365.58 257.884C331.533 257.011 278.759 248.8 256.669 245.132L258.571 234.545L354.806 221.285L365.868 244.491Z" fill="#3F3D56"/>
<path d="M323.281 96.9702C338.554 96.9702 350.935 84.6018 350.935 69.3446C350.935 54.0874 338.554 41.7191 323.281 41.7191C308.008 41.7191 295.627 54.0874 295.627 69.3446C295.627 84.6018 308.008 96.9702 323.281 96.9702Z" fill="#FFB8B8"/>
<path d="M376.376 259.408C376.376 259.408 379.695 289.244 359.784 287.034L356.466 257.198L338.767 239.518L288.991 238.413L252.488 272.669C252.488 272.669 251.382 237.308 255.806 233.993C260.231 230.678 270.186 222.943 270.186 222.943V217.418L240.32 156.641C240.32 156.641 258.018 120.176 272.398 119.071L291.203 117.966C291.203 117.966 297.84 114.651 297.84 113.545C297.84 112.44 296.734 103.6 302.264 105.81C302.264 105.81 302.762 94.4728 308.592 97.9315C308.592 97.9315 326.943 112.297 345.57 98.5614C345.57 98.5614 354.253 96.9701 353.147 101.39C352.041 105.81 353.147 109.125 355.36 109.125C357.572 109.125 367.527 112.44 367.527 114.651C367.527 115.126 368.246 119.7 369.374 126.585V126.596C373.478 151.691 383.013 207.472 383.013 207.472C383.013 207.472 392.969 221.838 376.376 259.408Z" fill="#F79E38"/>
<path d="M248.063 151.116L240.32 156.641L169.527 247.253L131.917 277.089C131.917 277.089 152.934 273.774 148.51 291.454L277.929 217.418L248.063 151.116Z" fill="#F79E38"/>
<path d="M369.374 126.585V126.596C367.903 135.237 319.963 133.436 313.326 133.436C306.689 133.436 301.158 132.331 294.521 127.911C287.884 123.491 291.203 117.966 291.203 117.966C291.203 117.966 296.854 113.666 296.854 112.561C296.854 111.456 295.748 102.616 301.279 104.826C301.279 104.826 301.776 93.488 307.606 96.9467C307.606 96.9467 326.943 112.297 345.57 98.5614C345.57 98.5614 354.253 96.9701 353.147 101.39C352.041 105.81 353.147 109.125 355.36 109.125C357.572 109.125 367.527 112.44 367.527 114.651C367.527 115.126 368.246 119.7 369.374 126.585Z" fill="#3F3D56"/>
<path d="M363.656 85.3674C363.656 85.3674 354.806 66.5821 345.957 75.4222C337.108 84.2624 355.912 97.5227 355.912 97.5227L363.656 85.3674Z" fill="#FFB8B8"/>
<path d="M363.656 80.9473C363.656 80.9473 349.991 98.1985 345.762 99.5181C345.762 99.5181 358.125 148.354 373.611 161.614L382.46 206.92C382.46 206.92 420.069 191.45 411.22 166.034C411.132 165.78 411.043 165.527 410.956 165.276C403.567 144.11 393.37 124.03 380.637 105.573L363.656 80.9473Z" fill="#F79E38"/>
<path opacity="0.2" d="M356.354 132.113L383.566 206.92L373.611 161.614L356.354 132.113Z" fill="black"/>
<path d="M352.998 40.2928L327.988 27.2063L293.452 32.56L286.306 64.0872L304.094 63.4038L309.063 51.821V63.2127L317.27 62.8971L322.034 44.4569L325.011 64.0872L354.188 63.4924L352.998 40.2928Z" fill="#2F2E41"/>
<path d="M138.449 286.603C121.257 277.028 110.555 263.957 106.638 247.752C103.731 235.721 104.566 222.182 109.122 207.511C112.499 196.695 117.562 186.478 124.125 177.237C158.941 128.006 162.083 95.9266 158.589 77.6844C154.757 57.6824 142.308 49.3753 142.183 49.2938L142.72 48.4682C142.849 48.5516 155.626 57.0517 159.549 77.4596C161.811 89.2248 160.747 102.64 156.386 117.333C150.959 135.619 140.375 155.965 124.93 177.806C118.427 186.962 113.41 197.085 110.063 207.803C102.592 231.864 101.535 264.918 138.929 285.743L138.449 286.603Z" fill="#2F2E41"/>
<path d="M107.05 195.442C93.4968 187.895 93.8741 175.933 96.5773 167.228C97.7758 163.389 99.5729 159.762 101.902 156.482C114.1 139.235 115.202 128.03 113.979 121.668C112.65 114.76 108.389 111.924 108.346 111.896L108.883 111.07C109.073 111.193 113.54 114.167 114.947 121.483C116.779 131.01 112.661 142.976 102.708 157.05C100.438 160.246 98.6866 163.779 97.5188 167.52C94.9237 175.877 94.554 187.356 107.53 194.582L107.05 195.442Z" fill="#2F2E41"/>
<path d="M168.028 86.1337L167.548 85.2735C180.524 78.0472 180.154 66.568 177.559 58.211C176.391 54.4703 174.64 50.937 172.37 47.7414C162.417 33.6674 158.3 21.7007 160.131 12.174C161.538 4.85774 166.005 1.88421 166.195 1.76135L166.733 2.58648C166.69 2.61485 162.407 5.48836 161.092 12.3985C159.882 18.757 160.996 29.9514 173.176 47.173C175.505 50.4532 177.302 54.0797 178.501 57.9191C181.204 66.6243 181.581 78.5857 168.028 86.1337Z" fill="#2F2E41"/>
<path d="M196.965 37.1403C195.905 38.7657 194.534 40.1664 192.931 41.2625C191.329 42.3586 189.525 43.1285 187.625 43.5282C185.724 43.928 183.764 43.9498 181.854 43.5924C179.945 43.2349 178.126 42.5053 176.499 41.4451C174.872 40.3849 173.471 39.015 172.374 37.4135C171.277 35.8121 170.507 34.0105 170.108 32.1117C169.709 30.2129 169.687 28.2541 170.046 26.3472C170.404 24.4402 171.136 22.6225 172.197 20.9979C176.66 14.1653 199.124 6.80054 199.124 6.80054C199.124 6.80054 201.428 30.3077 196.965 37.1403Z" fill="#F79E38"/>
<path d="M167.711 159.112C164.242 159.117 160.874 157.943 158.162 155.783C155.449 153.623 153.554 150.605 152.786 147.225C152.019 143.845 152.425 140.305 153.939 137.187C155.453 134.069 157.984 131.559 161.116 130.068C168.558 126.525 190.881 131.712 191.828 131.934L192.427 132.075L192.159 132.628C191.736 133.502 181.701 154.086 174.258 157.629C172.214 158.605 169.977 159.111 167.711 159.112ZM168.954 129.819C165.927 129.819 163.274 130.132 161.54 130.957C158.117 132.586 155.483 135.506 154.215 139.075C152.948 142.645 153.152 146.571 154.782 149.99C156.413 153.409 159.336 156.041 162.909 157.307C166.482 158.572 170.412 158.369 173.834 156.74C180.309 153.658 189.315 136.12 190.996 132.756C188.306 132.159 177.233 129.819 168.954 129.819Z" fill="#2F2E41"/>
<path d="M137.579 23.5874C139.014 24.8944 140.177 26.4709 141.002 28.2269C141.827 29.983 142.297 31.8842 142.387 33.8219C142.476 35.7597 142.183 37.6961 141.523 39.5205C140.863 41.345 139.851 43.0218 138.542 44.4552C137.234 45.8886 135.656 47.0505 133.898 47.8746C132.14 48.6988 130.237 49.1689 128.297 49.2583C126.358 49.3477 124.419 49.0545 122.593 48.3956C120.767 47.7366 119.088 46.7247 117.653 45.4177C111.619 39.921 107.949 16.5878 107.949 16.5878C107.949 16.5878 131.544 18.0907 137.579 23.5874Z" fill="#F79E38"/>
<path d="M103.077 85.6275C105.975 88.2671 107.704 91.9486 107.885 95.8621C108.065 99.7756 106.683 103.6 104.04 106.495C101.398 109.39 97.7128 111.118 93.7953 111.298C89.8778 111.479 86.049 110.097 83.1512 107.458C77.1168 101.961 73.4467 78.6279 73.4467 78.6279C73.4467 78.6279 97.0423 80.1308 103.077 85.6275Z" fill="#F79E38"/>
<path d="M141.75 94.3285C136.814 94.3285 127.377 89.6598 126.944 89.4441L126.394 89.1701L126.782 88.6931C127.113 88.2855 134.946 78.6983 139.352 77.7453C141.539 77.2724 143.824 77.6866 145.705 78.8968C147.586 80.1071 148.908 82.0141 149.382 84.1985C149.855 86.3829 149.44 88.6657 148.229 90.5446C147.017 92.4236 145.108 93.7448 142.922 94.2177C142.536 94.2957 142.143 94.3329 141.75 94.3285ZM127.946 88.8344C130.27 89.9428 139.172 94.0217 142.713 93.255C144.643 92.8363 146.328 91.6692 147.397 90.0101C148.466 88.3511 148.831 86.336 148.413 84.4077C147.995 82.4795 146.828 80.7959 145.168 79.7271C143.508 78.6583 141.491 78.2917 139.561 78.7079C136.018 79.4741 129.603 86.8651 127.946 88.8344Z" fill="#2F2E41"/>
<path d="M88.8174 294.662C89.8558 292.832 91.5789 291.489 93.608 290.928C95.6372 290.367 97.8063 290.633 99.6387 291.669C101.471 292.705 102.817 294.425 103.38 296.452C103.943 298.479 103.678 300.646 102.643 302.477C100.482 306.291 88.6889 310.999 88.6889 310.999C88.6889 310.999 86.657 298.476 88.8174 294.662Z" fill="#F79E38"/>
<path d="M63.0193 210.176C59.6173 210.121 56.2233 209.829 52.8622 209.301L52.255 209.202L52.4836 208.632C52.6788 208.145 57.3105 196.666 61.2347 194.45C62.199 193.906 63.2613 193.556 64.3608 193.421C65.4603 193.287 66.5756 193.37 67.643 193.666C68.7103 193.962 69.7089 194.465 70.5816 195.147C71.4543 195.828 72.1841 196.675 72.7293 197.638C73.2745 198.602 73.6244 199.663 73.7591 200.761C73.8938 201.86 73.8106 202.974 73.5142 204.04C73.2179 205.106 72.7142 206.104 72.032 206.976C71.3497 207.847 70.5023 208.576 69.538 209.121C68.1281 209.917 65.6454 210.176 63.0193 210.176ZM53.6371 208.422C56.1858 208.79 65.8979 210.045 69.0528 208.264C70.7728 207.293 72.036 205.679 72.5646 203.777C73.0933 201.875 72.844 199.841 71.8716 198.123C70.8992 196.405 69.2833 195.143 67.3795 194.615C65.4757 194.087 63.4399 194.336 61.7199 195.307C58.5655 197.089 54.6347 206.05 53.6371 208.422Z" fill="#2F2E41"/>
</g>
<defs>
<clipPath id="clip0_262_621">
<rect width="534" height="403" fill="white" transform="translate(0 -77)"/>
</clipPath>
</defs>
</svg>
