<svg width="390" height="844" viewBox="0 0 390 844" fill="none" xmlns="http://www.w3.org/2000/svg">
<path d="M-429.691 208.108C-485.852 387 -409.467 584.403 -167.7 775.946C74.067 967.49 769.895 954.828 451.953 485.023C134.012 15.2183 395.218 -87.711 129.626 -171.131C-135.966 -254.55 -353.061 -35.985 -429.691 208.108Z" fill="#F79E38" fill-opacity="0.25"/>
<path d="M454.26 383.178C445.831 566.008 317.646 721.759 49.2093 817.154C-219.227 912.548 -813.114 669.606 -391.051 344.191C31.0118 18.7757 -160.818 -162.513 93.8291 -150.768C348.476 -139.023 465.76 133.713 454.26 383.178Z" fill="#F79E38" fill-opacity="0.45"/>
<g clip-path="url(#clip0_262_620)">
<path d="M12.2924 729.805C14.3512 729.36 16.5027 729.75 18.2737 730.889C20.0447 732.029 21.29 733.824 21.7357 735.881C22.1815 737.938 21.7911 740.087 20.6504 741.856C19.5098 743.625 17.7124 744.869 15.6536 745.315C11.3663 746.242 0 740.582 0 740.582C0 740.582 8.00512 730.732 12.2924 729.805Z" fill="#F79E38"/>
<path d="M358.654 634.375C345.859 612.777 320.545 611.771 320.545 611.771C320.545 611.771 295.878 608.619 280.054 641.513C265.305 672.173 244.949 701.775 276.777 708.953L282.526 691.077L286.086 710.283C290.618 710.609 295.164 710.687 299.704 710.516C333.789 709.417 366.25 710.838 365.204 698.619C363.815 682.376 370.966 655.156 358.654 634.375Z" fill="#2F2E41"/>
<path d="M306.136 679.578C310.545 689.32 313.325 700.934 314.985 713.833L350.382 711.623C342.244 700.103 339.542 686.881 342.639 671.842L306.136 679.578Z" fill="#FFB8B8"/>
<path opacity="0.2" d="M306.136 679.578C310.545 689.32 313.325 700.934 314.985 713.833L350.382 711.623C342.244 700.103 339.542 686.881 342.639 671.842L306.136 679.578Z" fill="black"/>
<path d="M365.868 836.491L365.582 849.884L364.971 878.821L364.458 903.371L327.364 918L247.127 890.057L252.406 860.775L256.669 837.131L258.572 826.545L354.807 813.285L365.868 836.491Z" fill="#2F2E41"/>
<path d="M365.868 836.491L365.58 849.884C331.533 849.011 278.759 840.8 256.669 837.132L258.571 826.545L354.806 813.285L365.868 836.491Z" fill="#3F3D56"/>
<path d="M323.281 688.97C338.554 688.97 350.935 676.602 350.935 661.345C350.935 646.087 338.554 633.719 323.281 633.719C308.008 633.719 295.627 646.087 295.627 661.345C295.627 676.602 308.008 688.97 323.281 688.97Z" fill="#FFB8B8"/>
<path d="M376.376 851.408C376.376 851.408 379.695 881.244 359.784 879.034L356.466 849.198L338.767 831.518L288.991 830.413L252.488 864.669C252.488 864.669 251.382 829.308 255.806 825.993C260.231 822.678 270.186 814.943 270.186 814.943V809.418L240.32 748.641C240.32 748.641 258.018 712.176 272.398 711.071L291.203 709.966C291.203 709.966 297.84 706.651 297.84 705.545C297.84 704.44 296.734 695.6 302.264 697.81C302.264 697.81 302.762 686.473 308.592 689.932C308.592 689.932 326.943 704.297 345.57 690.561C345.57 690.561 354.253 688.97 353.147 693.39C352.041 697.81 353.147 701.125 355.36 701.125C357.572 701.125 367.527 704.44 367.527 706.651C367.527 707.126 368.246 711.7 369.374 718.585V718.596C373.478 743.691 383.013 799.472 383.013 799.472C383.013 799.472 392.969 813.838 376.376 851.408Z" fill="#F79E38"/>
<path d="M248.063 743.116L240.32 748.641L169.527 839.253L131.917 869.089C131.917 869.089 152.934 865.774 148.51 883.454L277.929 809.418L248.063 743.116Z" fill="#F79E38"/>
<path d="M369.374 718.585V718.596C367.903 727.237 319.963 725.436 313.326 725.436C306.689 725.436 301.158 724.331 294.521 719.911C287.884 715.491 291.203 709.966 291.203 709.966C291.203 709.966 296.854 705.666 296.854 704.561C296.854 703.456 295.748 694.616 301.279 696.826C301.279 696.826 301.776 685.488 307.606 688.947C307.606 688.947 326.943 704.297 345.57 690.561C345.57 690.561 354.253 688.97 353.147 693.39C352.041 697.81 353.147 701.125 355.36 701.125C357.572 701.125 367.527 704.44 367.527 706.651C367.527 707.126 368.246 711.7 369.374 718.585Z" fill="#3F3D56"/>
<path d="M363.656 677.367C363.656 677.367 354.806 658.582 345.957 667.422C337.108 676.262 355.912 689.523 355.912 689.523L363.656 677.367Z" fill="#FFB8B8"/>
<path d="M363.656 672.947C363.656 672.947 349.991 690.198 345.762 691.518C345.762 691.518 358.125 740.354 373.611 753.614L382.46 798.92C382.46 798.92 420.069 783.45 411.22 758.034C411.131 757.78 411.043 757.527 410.956 757.276C403.567 736.11 393.37 716.03 380.637 697.573L363.656 672.947Z" fill="#F79E38"/>
<path opacity="0.2" d="M356.354 724.113L383.566 798.92L373.611 753.614L356.354 724.113Z" fill="black"/>
<path d="M352.998 632.293L327.988 619.206L293.452 624.56L286.306 656.087L304.094 655.404L309.063 643.821V655.213L317.27 654.897L322.034 636.457L325.011 656.087L354.188 655.492L352.998 632.293Z" fill="#2F2E41"/>
<path d="M138.449 878.603C121.257 869.029 110.555 855.957 106.638 839.752C103.731 827.721 104.566 814.182 109.122 799.511C112.499 788.695 117.562 778.478 124.125 769.237C158.941 720.006 162.083 687.927 158.589 669.684C154.757 649.682 142.308 641.375 142.183 641.294L142.72 640.468C142.849 640.552 155.626 649.052 159.549 669.46C161.811 681.225 160.747 694.64 156.386 709.333C150.959 727.619 140.375 747.965 124.93 769.806C118.427 778.962 113.41 789.085 110.063 799.803C102.592 823.864 101.535 856.918 138.929 877.743L138.449 878.603Z" fill="#2F2E41"/>
<path d="M107.05 787.442C93.4968 779.895 93.8741 767.933 96.5773 759.228C97.7758 755.389 99.5729 751.762 101.902 748.482C114.1 731.235 115.202 720.03 113.979 713.668C112.65 706.76 108.389 703.924 108.346 703.896L108.883 703.07C109.073 703.193 113.54 706.167 114.947 713.483C116.779 723.01 112.661 734.976 102.708 749.05C100.438 752.246 98.6866 755.779 97.5188 759.52C94.9237 767.877 94.554 779.356 107.53 786.582L107.05 787.442Z" fill="#2F2E41"/>
<path d="M168.028 678.134L167.548 677.274C180.524 670.047 180.155 658.568 177.559 650.211C176.392 646.47 174.64 642.937 172.37 639.741C162.417 625.667 158.3 613.701 160.131 604.174C161.538 596.858 166.006 593.884 166.195 593.761L166.733 594.586C166.69 594.615 162.407 597.488 161.092 604.399C159.882 610.757 160.997 621.951 173.176 639.173C175.505 642.453 177.302 646.08 178.501 649.919C181.204 658.624 181.581 670.586 168.028 678.134Z" fill="#2F2E41"/>
<path d="M196.966 629.14C195.905 630.766 194.534 632.166 192.931 633.262C191.329 634.359 189.526 635.128 187.625 635.528C185.724 635.928 183.764 635.95 181.855 635.592C179.946 635.235 178.126 634.505 176.499 633.445C174.872 632.385 173.471 631.015 172.374 629.414C171.278 627.812 170.508 626.011 170.108 624.112C169.709 622.213 169.688 620.254 170.046 618.347C170.405 616.44 171.136 614.623 172.197 612.998C176.66 606.165 199.124 598.801 199.124 598.801C199.124 598.801 201.428 622.308 196.966 629.14Z" fill="#F79E38"/>
<path d="M191.544 583.349C190.483 584.974 189.112 586.375 187.51 587.471C185.907 588.567 184.104 589.337 182.203 589.737C180.303 590.136 178.342 590.158 176.433 589.801C174.524 589.443 172.704 588.714 171.077 587.654C169.451 586.593 168.049 585.223 166.952 583.622C165.856 582.021 165.086 580.219 164.686 578.32C164.287 576.421 164.266 574.463 164.624 572.556C164.983 570.649 165.714 568.831 166.776 567.206C171.238 560.374 193.703 553.009 193.703 553.009C193.703 553.009 196.006 576.516 191.544 583.349Z" fill="#F79E38"/>
<path d="M167.711 751.112C164.242 751.117 160.874 749.943 158.162 747.783C155.449 745.623 153.554 742.605 152.786 739.225C152.019 735.845 152.425 732.305 153.939 729.187C155.453 726.069 157.984 723.559 161.116 722.068C168.558 718.525 190.881 723.712 191.828 723.934L192.427 724.075L192.159 724.628C191.736 725.502 181.701 746.086 174.258 749.629C172.214 750.605 169.977 751.111 167.711 751.112V751.112ZM168.954 721.819C165.927 721.819 163.274 722.132 161.54 722.957C158.117 724.586 155.483 727.506 154.215 731.075C152.948 734.645 153.152 738.571 154.782 741.99C156.413 745.409 159.336 748.041 162.909 749.307C166.482 750.572 170.412 750.369 173.834 748.74C180.309 745.658 189.315 728.12 190.996 724.756C188.306 724.159 177.233 721.819 168.954 721.819V721.819Z" fill="#2F2E41"/>
<path d="M137.579 615.587C139.013 616.894 140.177 618.471 141.002 620.227C141.827 621.983 142.297 623.884 142.387 625.822C142.476 627.76 142.183 629.696 141.523 631.521C140.863 633.345 139.85 635.022 138.542 636.455C137.234 637.889 135.656 639.051 133.898 639.875C132.14 640.699 130.237 641.169 128.297 641.258C126.357 641.348 124.419 641.055 122.593 640.396C120.766 639.737 119.088 638.725 117.653 637.418C111.619 631.921 107.948 608.588 107.948 608.588C107.948 608.588 131.544 610.091 137.579 615.587Z" fill="#F79E38"/>
<path d="M103.077 677.628C105.975 680.267 107.704 683.949 107.885 687.862C108.066 691.776 106.683 695.6 104.04 698.495C101.398 701.39 97.7129 703.118 93.7954 703.298C89.878 703.479 86.0492 702.097 83.1513 699.458C77.1169 693.961 73.4468 670.628 73.4468 670.628C73.4468 670.628 97.0425 672.131 103.077 677.628Z" fill="#F79E38"/>
<path d="M141.75 686.329C136.814 686.329 127.377 681.66 126.944 681.444L126.394 681.17L126.782 680.693C127.113 680.286 134.946 670.698 139.352 669.745C141.539 669.272 143.824 669.687 145.705 670.897C147.586 672.107 148.908 674.014 149.382 676.198C149.855 678.383 149.44 680.666 148.229 682.545C147.017 684.424 145.108 685.745 142.922 686.218C142.536 686.296 142.143 686.333 141.75 686.329V686.329ZM127.946 680.834C130.27 681.943 139.172 686.022 142.713 685.255C144.643 684.836 146.328 683.669 147.397 682.01C148.466 680.351 148.831 678.336 148.413 676.408C147.995 674.479 146.828 672.796 145.168 671.727C143.508 670.658 141.491 670.292 139.561 670.708C136.018 671.474 129.603 678.865 127.946 680.834Z" fill="#2F2E41"/>
<path d="M63.0191 802.176C59.6172 802.121 56.2232 801.829 52.8621 801.301L52.2549 801.202L52.4835 800.632C52.6787 800.145 57.3103 788.666 61.2346 786.45C62.1989 785.905 63.2611 785.556 64.3607 785.421C65.4602 785.287 66.5755 785.37 67.6428 785.666C68.7102 785.962 69.7088 786.465 70.5815 787.147C71.4542 787.828 72.184 788.675 72.7292 789.638C73.2744 790.602 73.6243 791.663 73.759 792.761C73.8937 793.859 73.8105 794.974 73.5141 796.04C73.2178 797.106 72.7141 798.104 72.0318 798.976C71.3496 799.847 70.5021 800.576 69.5378 801.121C68.128 801.917 65.6453 802.176 63.0191 802.176ZM53.637 800.421C56.1857 800.79 65.8978 802.045 69.0526 800.264C70.7726 799.293 72.0359 797.679 72.5645 795.777C73.0932 793.875 72.8438 791.841 71.8714 790.123C70.899 788.405 69.2832 787.143 67.3794 786.615C65.4756 786.087 63.4398 786.336 61.7198 787.307V787.307C58.5654 789.089 54.6346 798.049 53.637 800.421Z" fill="#2F2E41"/>
</g>
<defs>
<clipPath id="clip0_262_620">
<rect width="534" height="403" fill="white" transform="translate(0 515)"/>
</clipPath>
</defs>
</svg>
